SplineFontDB: 1.0
FontName: BetecknaSmallCaps
FullName: Beteckna Small Caps
FamilyName: Beteckna Small Caps
Weight: Medium
Copyright: Drawn by Johan Mattsson.
Comments: 2007-4-9: Created.
Version: 001.100
ItalicAngle: 0
UnderlinePosition: -100
UnderlineWidth: 50
Ascent: 800
Descent: 200
NeedsXUIDChange: 1
XUID: [1021 458 2099711822 14249711]
FSType: 0
OS2Version: 0
OS2_WeightWidthSlopeOnly: 0
OS2_UseTypoMetrics: 1
CreationTime: 1176121501
ModificationTime: 1179264747
PfmFamily: 17
TTFWeight: 500
TTFWidth: 5
LineGap: 90
VLineGap: 0
OS2TypoAscent: 0
OS2TypoAOffset: 1
OS2TypoDescent: 0
OS2TypoDOffset: 1
OS2TypoLinegap: 90
OS2WinAscent: 0
OS2WinAOffset: 1
OS2WinDescent: 0
OS2WinDOffset: 1
HheadAscent: 0
HheadAOffset: 1
HheadDescent: 0
HheadDOffset: 1
OS2Vendor: 'PfEd'
ScriptLang: 1
 1 latn 1 dflt 
LangName: 1033 
Encoding: UnicodeBmp
UnicodeInterp: none
NameList: Adobe Glyph List
DisplaySize: -96
AntiAlias: 1
FitToEm: 1
WinInfo: 104 8 2
BeginChars: 65536 108
StartChar: A
Encoding: 65 65 0
Width: 674
VWidth: 13985
Flags: W
TeX: 0 0 0 0
HStem: 183.371 82.3184<233.408 434.111>
Fore
329.494 731.299 m 5
 369.99 638.658 l 5
 652.834 1.05664 l 5
 558.033 1.05664 l 5
 472.023 183.371 l 5
 197.342 183.371 l 5
 115.953 1.05664 l 5
 21.166 1.05664 l 5
 298.623 655.639 l 5
 329.494 731.299 l 5
434.111 265.689 m 5
 330.068 513.684 l 5
 233.408 265.689 l 5
 434.111 265.689 l 5
EndSplineSet
KernsSLIFO: 47 -50 0 0 43 -60 0 0 41 -56 0 0 35 -69 0 0 31 -59 0 0 26 -106 0 0 49 -165 0 0 48 -166 0 0 46 -106 0 0 25 53 0 0 24 -124 0 0 23 49 0 0 22 -222 0 0 21 -213 0 0 19 -140 0 0 16 -41 0 0 15 43 0 0 10 53 0 0 7 -44 0 0 2 44 0 0 0 65 0 0
EndChar
StartChar: M
Encoding: 77 77 1
Width: 734
VWidth: 14003
Flags: W
TeX: 0 0 0 0
VStem: 44.8008 86.625<-1.01172 44.1528>
Fore
368.645 330.5 m 1
 79.8008 722.572 l 1
 44.8008 -1.01172 l 1
 131.426 -1.01172 l 1
 162.051 460.043 l 1
 368.645 190.5 l 1
 571.949 456.557 l 1
 602.574 -4.49805 l 1
 689.199 -4.49805 l 1
 654.199 719.086 l 1
 368.645 330.5 l 1
EndSplineSet
KernsSLIFO: 51 -49 0 0 50 -48 0 0 47 -59 0 0 46 -42 0 0 45 -54 0 0 44 -56 0 0 43 -49 0 0 42 -53 0 0 41 -44 0 0 40 -67 0 0 39 -68 0 0 28 -55 0 0 38 -57 0 0 37 -41 0 0 27 -67 0 0 36 -67 0 0 35 -49 0 0 34 -56 0 0 33 -64 0 0 32 -56 0 0 31 -48 0 0 30 -58 0 0
EndChar
StartChar: B
Encoding: 66 66 2
Width: 517
VWidth: 13945
Flags: W
TeX: 0 0 0 0
HStem: 1.3125 93.625<131.005 402.336> 332.688 50.3369<273.341 422.47> 333.562 73.125<131.005 172.812> 615.057 72.5156<131.005 227.841 227.841 243.591 247.091 389.767>
VStem: 44.4482 86.5566<94.9375 333.562 406.688 615.932>
Fore
44.4482 687.572 m 1xd8
 243.591 687.572 l 1
 247.091 686.26 l 1
 433.54 690.043 476.415 447.365 333.461 386.444 c 1
 330.73 385.28 331.773 383.182 332.681 383.045 c 1
 332.944 383.024 l 1
 523.604 374.719 533.818 -6.4834 270.716 1.3125 c 1
 261.091 0 l 1
 93.0107 0.4375 l 1
 93.0107 0.875 l 1
 44.4482 -0.4375 l 1
 44.4482 687.572 l 1xd8
131.005 615.932 m 1
 131.005 406.688 l 1
 242.716 406.688 l 2xb8
 368.976 423.764 356.697 611.953 227.841 615.057 c 1
 227.841 615.932 l 1
 131.005 615.932 l 1
131.005 333.562 m 1
 131.005 94.9375 l 1
 284.277 94.9375 l 2
 421.585 97.2891 402.197 329.584 273.341 332.688 c 1xd8
 273.341 333.562 l 1
 131.005 333.562 l 1
EndSplineSet
KernsSLIFO: 51 -73 0 0 26 -54 0 0 50 -72 0 0 49 -49 0 0 48 -49 0 0 46 -60 0 0 37 -70 0 0 24 -57 0 0 22 -62 0 0 21 -60 0 0
EndChar
StartChar: C
Encoding: 67 67 3
Width: 694
VWidth: 13876
Flags: W
TeX: 0 0 0 0
HStem: 615.859 86.5293<325.756 480.842>
Fore
430.16 702.389 m 4
 479.078 700.57 531.612 692.908 578.727 670.883 c 5
 579.219 670.869 l 5
 611.553 655.693 616.23 651.32 641.946 628.967 c 5
 571.064 565.533 l 5
 551.362 592.166 468.935 614.369 429.244 615.859 c 4
 321.894 619.852 207.117 550.74 158.623 447.422 c 4
 93.9004 309.527 152.305 162.223 290.213 97.5 c 4
 395.732 47.9668 509.434 75.959 597.713 142.5 c 5
 657.713 75 l 5
 535.213 -37.5 323.952 -28.3398 240.213 15 c 4
 55.2598 110.703 -13.9834 296.922 74.501 485.443 c 4
 140.781 626.674 283.394 707.871 430.16 702.389 c 4
EndSplineSet
KernsSLIFO: 51 -55 0 0 50 -52 0 0 47 -56 0 0 44 -40 0 0 43 -62 0 0 41 -59 0 0 40 -51 0 0 39 -52 0 0 38 -41 0 0 37 -52 0 0 27 -51 0 0 36 -51 0 0 35 -74 0 0 34 -40 0 0 33 -48 0 0 32 -40 0 0 31 -63 0 0 30 -42 0 0 26 -138 0 0 49 -168 0 0 48 -169 0 0 46 -139 0 0 24 41 0 0 18 57 0 0 15 44 0 0 10 51 0 0 4 40 0 0 2 45 0 0 0 46 0 0
EndChar
StartChar: D
Encoding: 68 68 4
Width: 611
VWidth: 13891
Flags: W
TeX: 0 0 0 0
HStem: 0 82.8516<134.351 310.546> 615 76.3047<101.024 380.365>
VStem: 39.3037 95.0469<82.8516 588.343> 39.3037 91.8887<109.508 615>
Fore
144.987 691.305 m 2xd0
 206.538 693.861 197.556 690.999 254.649 690.744 c 0
 421.036 690 501.036 586 531.036 526 c 1
 619.416 337.003 564.731 87.834 357.036 16 c 1
 339.237 9.75684 310.164 4.25879 285.036 0 c 1
 237.036 0 202.195 -2.36426 137.987 0 c 2
 39.3037 0 l 1
 39.3037 691.305 l 1
 144.987 691.305 l 2xd0
453.685 476.172 m 0
 420.899 556.809 349.423 615.602 246.282 615.055 c 0
 211.364 614.877 203.722 616.354 131.192 615 c 1xd0
 134.351 82.8516 l 1xe0
 198.964 81.3613 276.879 76.1973 348.999 105.766 c 0
 491.036 164 486.948 394.373 453.685 476.172 c 0
EndSplineSet
KernsSLIFO: 51 -72 0 0 50 -46 0 0 29 -65 0 0 37 -131 0 0 25 -96 0 0 24 -71 0 0 23 -100 0 0 22 -61 0 0 21 -58 0 0 19 -55 0 0 16 42 0 0 10 -58 0 0 0 -52 0 0
EndChar
StartChar: E
Encoding: 69 69 5
Width: 483
VWidth: 13996
Flags: W
TeX: 0 0 0 0
HStem: 0 82.3047<146.467 429.01> 329.246 82.7832<146.467 341.604> 608.014 85.3184<146.467 420.232>
VStem: 53.9902 92.4766<82.3047 329.246 412.029 608.014>
Fore
53.9902 693.332 m 1
 53.9902 0 l 1
 429.01 0 l 1
 429.01 82.3047 l 1
 146.467 82.3047 l 1
 146.467 329.246 l 1
 341.604 329.246 l 1
 341.604 412.029 l 1
 146.467 412.029 l 1
 146.467 608.014 l 1
 420.232 608.014 l 1
 420.232 693.332 l 1
 53.9902 693.332 l 1
EndSplineSet
KernsSLIFO: 51 -41 0 0 50 -40 0 0 47 -62 0 0 45 -45 0 0 44 -48 0 0 43 -67 0 0 42 -45 0 0 41 -65 0 0 40 -59 0 0 39 -60 0 0 28 -47 0 0 38 -49 0 0 27 -59 0 0 36 -59 0 0 35 -78 0 0 34 -48 0 0 33 -56 0 0 32 -48 0 0 31 -67 0 0 30 -50 0 0 26 -131 0 0 49 -123 0 0 48 -123 0 0 46 -121 0 0 16 -40 0 0 14 -52 0 0 7 -44 0 0 3 -52 0 0
EndChar
StartChar: F
Encoding: 70 70 6
Width: 469
VWidth: 13978
Flags: W
TeX: 0 0 0 0
HStem: 329.246 82.7832<150.862 346.001> 609.014 82.3184<150.862 410.614>
VStem: 58.3857 92.4766<0 329.246 412.029 609.014>
Fore
58.3857 691.332 m 1
 58.3857 0 l 1
 150.862 -0.0859375 l 5
 150.862 329.246 l 1
 346.001 329.246 l 1
 346.001 412.029 l 1
 150.862 412.029 l 1
 150.862 609.014 l 1
 410.614 609.014 l 1
 410.614 691.332 l 1
 58.3857 691.332 l 1
EndSplineSet
KernsSLIFO: 43 -119 0 0 41 -113 0 0 28 -120 0 0 35 -117 0 0 34 -121 0 0 33 -129 0 0 32 -121 0 0 31 -122 0 0 30 -123 0 0 51 -178 0 0 50 -155 0 0 47 -124 0 0 44 -121 0 0 42 -118 0 0 40 -132 0 0 39 -133 0 0 38 -122 0 0 37 -273 0 0 27 -132 0 0 36 -132 0 0 26 -117 0 0 49 -109 0 0 48 -109 0 0 46 -107 0 0 45 -136 0 0 29 -134 0 0 25 -57 0 0 10 -66 0 0 0 -148 0 0
EndChar
StartChar: G
Encoding: 71 71 7
Width: 704
VWidth: 14000
Flags: W
TeX: 0 0 0 0
HStem: 290 75<448.098 584.857> 632.721 87.3955<320.693 474.993>
VStem: 581.185 90.9131<149.368 264.237> 584.857 88.5801<183.557 290>
Fore
673.438 365 m 1xd0
 672.098 116 l 1
 672.098 104 665.32 96.7598 653.864 90.5088 c 1
 531.364 -21.9805 318.105 -17.916 234.364 25.8535 c 0
 -145.457 224.377 56.498 733.96 424.312 720.116 c 0
 473.229 718.275 525.764 710.527 572.878 688.281 c 1
 573.369 688.281 l 1
 605.704 672.953 610.382 668.537 636.098 645.96 c 1
 565.216 581.893 l 1
 545.514 608.791 463.086 631.217 423.396 632.721 c 0
 316.045 636.754 201.269 566.951 152.775 462.6 c 0
 88.0518 323.325 146.459 174.554 284.364 109.179 c 0
 384.901 61.5176 494.86 88.9258 581.185 149.368 c 1xe0
 584.857 290 l 1
 447.438 290 l 1
 448.098 364 l 1
 673.438 365 l 1xd0
EndSplineSet
KernsSLIFO: 51 -66 0 0 26 -64 0 0 50 -65 0 0 49 -48 0 0 48 -49 0 0 37 -63 0 0 46 -125 0 0 20 42 0 0 18 53 0 0 16 65 0 0 15 42 0 0 14 62 0 0 10 43 0 0 7 59 0 0 3 62 0 0 2 43 0 0
EndChar
StartChar: H
Encoding: 72 72 8
Width: 630
VWidth: 13914
Flags: W
TeX: 0 0 0 0
HStem: 311.312 82.6875<150.625 481.125>
VStem: 58.3145 92.3105<0.3125 311.75 394.438 689.562> 481.125 90.5625<-0.4375 311.312 394 693.5>
Fore
481.125 693.5 m 1
 571.688 693.5 l 1
 571.688 -0.4375 l 1
 481.125 -0.4375 l 1
 481.125 311.312 l 5
 150.625 311.75 l 5
 150.625 0.0625 l 1
 58.3145 0.3125 l 1
 58.3125 689.562 l 1
 150.436 689.688 l 1
 150.625 617.312 l 1
 150.625 394.438 l 5
 481.125 394 l 5
 481.125 693.5 l 1
EndSplineSet
KernsSLIFO: 51 -49 0 0 50 -48 0 0 47 -59 0 0 46 -42 0 0 45 -54 0 0 44 -56 0 0 43 -49 0 0 42 -53 0 0 41 -44 0 0 40 -67 0 0 39 -68 0 0 28 -55 0 0 38 -57 0 0 37 -41 0 0 27 -67 0 0 36 -67 0 0 35 -49 0 0 34 -56 0 0 33 -64 0 0 32 -56 0 0 31 -48 0 0 30 -58 0 0
EndChar
StartChar: I
Encoding: 73 73 9
Width: 207
VWidth: 13882
Flags: W
TeX: 0 0 0 0
HStem: 1 21G<58.7188 149.281>
VStem: 57.7188 90.5625<1 695.938>
Fore
57.7188 695.938 m 5
 148.281 695.938 l 5
 149.281 1 l 5
 58.7188 1 l 5
 57.7188 695.938 l 5
EndSplineSet
KernsSLIFO: 51 -48 0 0 50 -47 0 0 47 -58 0 0 46 -42 0 0 45 -53 0 0 44 -55 0 0 43 -49 0 0 42 -52 0 0 41 -43 0 0 40 -66 0 0 39 -67 0 0 28 -54 0 0 38 -56 0 0 37 -40 0 0 27 -66 0 0 36 -66 0 0 35 -49 0 0 34 -55 0 0 33 -63 0 0 32 -55 0 0 31 -47 0 0 30 -57 0 0
EndChar
StartChar: J
Encoding: 74 74 10
Width: 457
VWidth: 13858
Flags: HW
TeX: 0 0 0 0
HStem: 680 20G<272.973 363.973>
VStem: 272.973 91<539.556 700> 279.848 93.625<51.5824 372.947>
Fore
63.4727 72 m 1xa0
 160.473 1.21484 283.473 64 279.848 227.687 c 5xa0
 272.973 700 l 1
 363.973 700 l 1xc0
 373.473 222 l 5
 377.473 -22 158.473 -92.7852 22.4727 -6.78516 c 1
 63.4727 72 l 1xa0
EndSplineSet
KernsSLIFO: 51 -78 0 0 50 -76 0 0 47 -58 0 0 46 -41 0 0 45 -65 0 0 44 -55 0 0 43 -48 0 0 42 -52 0 0 41 -43 0 0 40 -66 0 0 39 -67 0 0 28 -54 0 0 38 -56 0 0 37 -80 0 0 27 -66 0 0 36 -66 0 0 35 -48 0 0 34 -55 0 0 33 -63 0 0 32 -55 0 0 31 -47 0 0 30 -57 0 0 29 -42 0 0 24 51 0 0 22 54 0 0 21 53 0 0 19 49 0 0 16 56 0 0 14 53 0 0 7 51 0 0 3 53 0 0
EndChar
StartChar: K
Encoding: 75 75 11
Width: 636
VWidth: 13920
Flags: W
TeX: 0 0 0 0
VStem: 49.4639 92.4902<-2.5 357.826 361.271 685.762>
Fore
413.86 685.762 m 1
 527.104 685.762 l 1
 249.237 362.064 l 1
 586.536 -2.5 l 1
 471.665 -2.5 l 1
 141.954 357.826 l 1
 141.954 -2.5 l 1
 49.4639 -2.5 l 1
 49.4639 685.762 l 1
 141.954 685.762 l 1
 141.954 361.271 l 1
 413.86 685.762 l 1
EndSplineSet
KernsSLIFO: 47 -72 0 0 43 -87 0 0 41 -84 0 0 31 -93 0 0 26 -104 0 0 49 -167 0 0 48 -167 0 0 46 -104 0 0 35 -106 0 0 20 -51 0 0 16 -140 0 0 14 -128 0 0 7 -139 0 0 3 -128 0 0
EndChar
StartChar: L
Encoding: 76 76 12
Width: 474
VWidth: 14017
Flags: W
TeX: 0 0 0 0
HStem: 2.24414 82.3047<141.967 424.51>
VStem: 49.4902 92.4766<84.5488 690.258>
Fore
141.967 690.258 m 5
 141.967 84.5488 l 5
 424.51 84.5488 l 5
 424.51 2.24414 l 5
 49.4902 2.24414 l 5
 49.4902 690.576 l 5
 141.967 690.258 l 5
EndSplineSet
KernsSLIFO: 26 -105 0 0 49 -133 0 0 48 -134 0 0 46 -105 0 0 24 -157 0 0 22 -225 0 0 21 -214 0 0 19 -173 0 0 16 -64 0 0 14 -51 0 0 7 -63 0 0 3 -53 0 0
EndChar
StartChar: N
Encoding: 78 78 13
Width: 646
VWidth: 14001
Flags: W
TeX: 0 0 0 0
VStem: 58.3047 86.9395<3.40234 467.393> 499.826 87.8691<204.266 695.664> 502.826 84.6953<204.266 695.664>
Fore
145.244 467.393 m 5xa0
 145.244 3.40234 l 5
 58.3047 3.40234 l 5
 58.3047 699.875 l 5
 502.826 204.266 l 5xa0
 499.826 695.691 l 5
 587.695 695.664 l 5xc0
 587.521 -27.8926 l 5
 145.244 467.393 l 5xa0
EndSplineSet
KernsSLIFO: 51 -50 0 0 50 -49 0 0 47 -60 0 0 46 -43 0 0 45 -55 0 0 44 -57 0 0 43 -50 0 0 42 -54 0 0 41 -45 0 0 40 -68 0 0 39 -69 0 0 28 -56 0 0 38 -58 0 0 37 -41 0 0 27 -68 0 0 36 -68 0 0 35 -50 0 0 34 -57 0 0 33 -65 0 0 32 -57 0 0 31 -49 0 0 30 -59 0 0
EndChar
StartChar: O
Encoding: 79 79 14
Width: 752
VWidth: 14000
Flags: W
TeX: 0 0 0 0
HStem: -2.99219 83.8232<-57.6021 812.849> 627 80.4346<-62.3263 646.05>
VStem: 354.33 15.4873<80.8311 627>
Fore
354.33 627 m 5
 33.8252 627 41.0332 80.6084 369.817 80.8311 c 5
 710.611 80.6084 728.33 632 354.33 627 c 5
361.042 707.435 m 5
 853.313 703.829 842.471 -3.27441 367.563 -2.99219 c 5
 -90.6064 -3.27441 -85.5859 707.435 361.042 707.435 c 5
EndSplineSet
KernsSLIFO: 51 -72 0 0 50 -42 0 0 29 -69 0 0 37 -135 0 0 10 -46 0 0 25 -80 0 0 23 -83 0 0 20 43 0 0 16 67 0 0 15 43 0 0 14 64 0 0 7 62 0 0 3 64 0 0 2 44 0 0
EndChar
StartChar: P
Encoding: 80 80 15
Width: 506
VWidth: 13922
Flags: W
TeX: 0 0 0 0
HStem: 303.516 81.8125<144.458 424.88> 609.328 82.25<144.458 432.694>
VStem: 51.708 92.75<3.39062 302.641 385.328 610.203>
Fore
51.708 692.891 m 5
 258.646 691.578 l 6
 519.491 696.992 522.595 301.232 249.376 303.516 c 6
 144.458 302.641 l 5
 144.458 3.39062 l 5
 51.708 1.20312 l 5
 51.708 692.891 l 5
144.458 610.203 m 5
 144.458 385.328 l 5
 252.425 385.328 l 6
 385.083 385.369 396.391 606.238 257.936 609.328 c 6
 144.458 610.203 l 5
EndSplineSet
KernsSLIFO: 50 -63 0 0 47 -47 0 0 45 -73 0 0 44 -44 0 0 43 -81 0 0 42 -41 0 0 41 -77 0 0 40 -55 0 0 39 -56 0 0 28 -43 0 0 38 -45 0 0 27 -55 0 0 36 -55 0 0 35 -85 0 0 34 -44 0 0 33 -52 0 0 32 -44 0 0 31 -98 0 0 30 -46 0 0 51 -113 0 0 29 -140 0 0 37 -197 0 0 25 -63 0 0 23 -59 0 0 10 -61 0 0 0 -131 0 0
EndChar
StartChar: Q
Encoding: 81 81 16
Width: 763
VWidth: 14000
Flags: W
TeX: 0 0 0 0
HStem: -2.99219 83.8232<-52.1021 818.349> 627 80.4346<-56.8263 651.55>
VStem: 359.83 348.171<47.5 627>
Fore
359.83 627 m 1
 39.3252 627 46.5332 80.6084 375.317 80.8311 c 1
 716.111 80.6084 733.83 632 359.83 627 c 1
366.542 707.435 m 1
 858.813 703.829 847.971 -3.27441 373.063 -2.99219 c 1
 -85.1064 -3.27441 -80.0859 707.435 366.542 707.435 c 1
571.856 199.346 m 1
 708.001 47.5 l 1
 632.845 -14.0938 l 1
 512.476 124.916 l 1
 444.501 201 l 1
 518.001 260 l 1
 571.856 199.346 l 1
EndSplineSet
KernsSLIFO: 51 -43 0 0 50 -42 0 0 45 -44 0 0 40 -40 0 0 39 -41 0 0 37 -40 0 0 27 -40 0 0 36 -40 0 0 24 -47 0 0 22 -41 0 0 18 59 0 0 16 51 0 0 15 46 0 0 14 48 0 0 10 52 0 0 7 46 0 0 6 41 0 0 4 42 0 0 3 47 0 0 2 47 0 0 0 44 0 0
EndChar
StartChar: R
Encoding: 82 82 17
Width: 489
VWidth: 13859
Flags: W
TeX: 0 0 0 0
HStem: 312.625 81.8125<141.484 279.536> 618.438 82.25<141.484 428.785>
VStem: 48.7344 92.75<394.438 618.312> 52.2031 92.75<0.828125 269.734> 52.2031 89.2812<42.8446 311.75>
Fore
48.7344 700 m 1xe0
 255.672 700.688 l 2
 473.041 705.199 511.158 431.228 359.797 341.062 c 1
 524.266 0.828125 l 1
 423.203 0.828125 l 1
 272.297 313.5 l 1
 264.025 312.775 255.344 312.556 246.484 312.625 c 2
 141.484 311.75 l 1xc8
 144.953 0.828125 l 1
 52.2031 0.828125 l 1xd0
 48.7344 700 l 1xe0
141.484 618.312 m 1xe0
 141.484 394.438 l 1
 249.547 394.438 l 2
 382.204 394.478 393.252 615.334 254.797 618.438 c 2
 141.484 618.312 l 1xe0
EndSplineSet
KernsSLIFO: 29 53 0 0 26 -61 0 0 49 -57 0 0 48 -57 0 0 47 -59 0 0 46 -68 0 0 43 -69 0 0 41 -67 0 0 35 -80 0 0 31 -70 0 0 13 -23 0 0 24 -91 0 0 22 -91 0 0 21 -90 0 0 20 -61 0 0 19 -69 0 0 16 -43 0 0 14 -49 0 0 7 -48 0 0 3 -47 0 0
EndChar
StartChar: S
Encoding: 83 83 18
Width: 580
VWidth: 13879
Flags: HW
TeX: 0 0 0 0
HStem: 685 20G<144.927 292.306>
VStem: 35.6777 436<52 120>
Fore
254.935 705 m 1
 329.678 705 373.678 698 423.678 659 c 1
 377.678 592 l 1
 342.678 622 301.477 631.74 247.935 626.5 c 1
 149.678 614 110.178 485 257.678 430 c 1
 339.435 402.5 l 1
 426.935 370 539.178 267.5 471.678 120 c 0
 439.851 50.4512 371.935 -25 184.435 0 c 1
 103.596 14.4121 85.6777 26 35.6777 52 c 1
 53.6777 149 l 1
 119.537 118.741 155.15 106.215 190.935 97 c 1
 253.435 77 334.178 87.5 379.178 152.5 c 1
 421.678 215 380.738 289.565 311.935 312.5 c 1
 281.935 325 264.035 332.695 231.678 344 c 1
 -23.4648 420.195 34.9199 705 254.935 705 c 1
EndSplineSet
KernsSLIFO: 51 -165 0 0 50 -166 0 0 49 -160 0 0 48 -160 0 0 47 -109 0 0 46 -167 0 0 45 -119 0 0 40 -117 0 0 39 -118 0 0 38 -107 0 0 37 -161 0 0 27 -117 0 0 36 -117 0 0 33 -114 0 0 30 -108 0 0 29 -118 0 0 26 -180 0 0 28 -105 0 0 44 -106 0 0 42 -103 0 0 34 -106 0 0 32 -106 0 0 43 -98 0 0 41 -93 0 0 35 -99 0 0 31 -97 0 0 16 51 0 0 14 51 0 0 7 47 0 0 3 50 0 0
EndChar
StartChar: T
Encoding: 84 84 19
Width: 490
VWidth: 14006
Flags: HW
TeX: 0 0 0 0
HStem: 606 80.3047<16.5 199.379 292.32 473.5>
VStem: 195.668 92.832<0 475.245> 199.379 92.9414<131.001 605.195>
Fore
16.5 686.305 m 1xa0
 473.5 686.305 l 1
 473.5 606 l 1
 292.32 605.195 l 1xa0
 288.5 0 l 1
 195.668 -0.384766 l 1xc0
 195.559 1.33789 l 1
 199.379 605.195 l 1
 16.5 606 l 1
 16.5 686.305 l 1xa0
EndSplineSet
KernsSLIFO: 72 -84 0 0 71 -63 0 0 58 -77 0 0 60 -49 0 0 59 -181 0 0 51 -92 0 0 43 -183 0 0 35 -190 0 0 34 -107 0 0 50 -91 0 0 47 -167 0 0 44 -104 0 0 42 -101 0 0 40 -110 0 0 39 -111 0 0 28 -105 0 0 38 -105 0 0 37 -82 0 0 27 -110 0 0 36 -110 0 0 33 -114 0 0 32 -106 0 0 31 -189 0 0 30 -116 0 0 26 -173 0 0 49 -159 0 0 48 -171 0 0 46 -186 0 0 45 -113 0 0 41 -180 0 0 29 -70 0 0 24 57 0 0 22 60 0 0 21 60 0 0 19 55 0 0 10 -45 0 0 2 40 0 0 0 -141 0 0
EndChar
StartChar: U
Encoding: 85 85 20
Width: 592
VWidth: 13969
Flags: W
TeX: 0 0 0 0
HStem: 264.266 420.422<53.8496 145.245>
VStem: 53.8496 92.75<160.289 683.375> 444.057 90.5625<433.579 682.5> 445.412 94.0625<41.3253 523.01>
Fore
145.245 684.688 m 5xd0
 146.6 266.453 l 2
 147.119 29.3281 439.096 27.9062 443.225 269.953 c 1
 445.412 267.766 l 1xd0
 444.057 682.5 l 5
 534.619 682.5 l 5xe0
 539.475 265.141 l 2
 543.973 -93.5957 41.0391 -77.2715 53.8496 264.266 c 2
 52.4951 683.375 l 5
 145.245 684.688 l 5xd0
EndSplineSet
KernsSLIFO: 50 -75 0 0 47 -57 0 0 46 -41 0 0 45 -70 0 0 44 -54 0 0 43 -47 0 0 42 -51 0 0 41 -42 0 0 40 -65 0 0 39 -66 0 0 28 -53 0 0 38 -55 0 0 27 -65 0 0 36 -65 0 0 35 -47 0 0 34 -54 0 0 33 -62 0 0 32 -54 0 0 31 -46 0 0 30 -56 0 0 29 -78 0 0 51 -112 0 0 37 -124 0 0 25 -54 0 0 22 41 0 0 21 40 0 0 16 46 0 0 14 43 0 0 7 41 0 0 3 43 0 0
EndChar
StartChar: V
Encoding: 86 86 21
Width: 675
VWidth: 13985
Flags: HW
TeX: 0 0 0 0
Fore
444.611 428.609 m 5
 558.533 693.242 l 5
 653.334 693.242 l 5
 329.994 -37 l 5
 299.123 38.6602 l 5
 21.666 693.242 l 5
 116.453 693.242 l 5
 228.908 428.609 l 5
 330.568 180.615 l 5
 444.611 428.609 l 5
EndSplineSet
KernsSLIFO: 45 -189 0 0 27 -146 0 0 51 -222 0 0 43 -200 0 0 41 -195 0 0 35 -202 0 0 50 -159 0 0 44 -131 0 0 42 -132 0 0 40 -142 0 0 39 -138 0 0 28 -134 0 0 38 -136 0 0 37 -288 0 0 36 -142 0 0 34 -135 0 0 33 -143 0 0 32 -135 0 0 31 -213 0 0 30 -137 0 0 26 -115 0 0 49 -110 0 0 48 -110 0 0 47 -138 0 0 46 -121 0 0 29 -295 0 0 14 -83 0 0 24 61 0 0 22 65 0 0 21 64 0 0 20 43 0 0 19 59 0 0 15 43 0 0 10 -42 0 0 2 44 0 0 0 -211 0 0
EndChar
StartChar: W
Encoding: 87 87 22
Width: 865
VWidth: 14002
Flags: HW
TeX: 0 0 0 0
Fore
1060.25 -114 m 29,0,-1
436.75 370 m 1,1,-1
 596.194 -19.2744 l 1,2,-1
 838.25 692 l 1,3,-1
 751.275 692.916 l 1,4,-1
 592.538 227.824 l 1,5,-1
 449.938 559 l 1,6,-1
 433.75 597.5 l 25,7,-1
 417.54 560.5 l 17,8,-1
 273.766 226.596 l 1,9,-1
 115.028 691.688 l 1,10,-1
 26.75 692.5 l 1,11,-1
 270.109 -20.5029 l 1,12,-1
 436.75 370 l 1,1,-1
EndSplineSet
KernsSLIFO: 27 -152 0 0 51 -229 0 0 45 -196 0 0 43 -208 0 0 41 -203 0 0 35 -210 0 0 50 -166 0 0 44 -136 0 0 42 -138 0 0 40 -147 0 0 39 -142 0 0 28 -140 0 0 38 -142 0 0 37 -294 0 0 36 -147 0 0 34 -141 0 0 33 -149 0 0 32 -141 0 0 31 -222 0 0 30 -143 0 0 26 -121 0 0 49 -116 0 0 48 -116 0 0 47 -144 0 0 46 -127 0 0 29 -300 0 0 24 62 0 0 22 66 0 0 21 65 0 0 20 44 0 0 19 60 0 0 15 44 0 0 14 -41 0 0 10 -42 0 0 4 40 0 0 2 45 0 0 0 -212 0 0
EndChar
StartChar: X
Encoding: 88 88 23
Width: 695
VWidth: 13964
Flags: HW
TeX: 0 0 0 0
Fore
74.7773 697.6 m 5
 196.332 698 l 29
 286.387 569.975 l 21
 608.387 89.5996 l 5
 607.949 89.1621 l 5
 666.221 -0.525391 l 5
 561.709 0.228516 l 29
 505.068 83.9805 l 21
 166.012 569.975 l 6
 130.807 618.865 97.3223 665.074 74.7773 697.6 c 5
28.7793 0.400391 m 5
 51.3242 32.9258 59.4316 43.8633 94.6367 92.7539 c 6
 419.318 581.502 l 13
 496.332 696 l 29
 601.846 696.754 l 5
 522.199 576.32 l 5
 522.635 575.883 l 5
 204.012 92.7539 l 13
 148.332 0 l 29
 28.7793 0.400391 l 5
EndSplineSet
KernsSLIFO: 47 -62 0 0 43 -73 0 0 41 -71 0 0 35 -88 0 0 31 -76 0 0 26 -108 0 0 49 -131 0 0 48 -131 0 0 46 -108 0 0 16 -88 0 0 14 -81 0 0 7 -90 0 0 3 -82 0 0 0 50 0 0
EndChar
StartChar: Y
Encoding: 89 89 24
Width: 604
VWidth: 13933
Flags: W
TeX: 0 0 0 0
VStem: 247.719 105.875<2.5625 132.935> 255.188 98.874<197.877 330.438>
Fore
16.5 692.5 m 1x40
 121.5 692.5 l 1
 303.562 417.688 l 1
 482.062 692.5 l 1
 587.5 692.5 l 1
 354.5 334 l 1
 354.062 334 l 1x40
 353.594 2.5625 l 1
 247.719 0.375 l 1x80
 255.188 330.438 l 1
 255.625 330.438 l 1
 16.5 692.5 l 1x40
EndSplineSet
KernsSLIFO: 27 -165 0 0 51 -243 0 0 45 -215 0 0 43 -233 0 0 41 -162 0 0 35 -236 0 0 50 -179 0 0 44 -147 0 0 42 -151 0 0 40 -158 0 0 39 -152 0 0 28 -153 0 0 38 -155 0 0 37 -241 0 0 36 -158 0 0 34 -154 0 0 33 -162 0 0 32 -154 0 0 30 -156 0 0 26 -134 0 0 49 -129 0 0 48 -129 0 0 47 -157 0 0 46 -140 0 0 31 -247 0 0 29 -215 0 0 24 57 0 0 22 63 0 0 21 62 0 0 19 55 0 0 14 -44 0 0 10 -45 0 0 3 -42 0 0 2 40 0 0 0 -128 0 0
EndChar
StartChar: Z
Encoding: 90 90 25
Width: 795
VWidth: 13964
Flags: W
TeX: 0 0 0 0
HStem: 0.400391 92.3535<295.679 674.554> 578.748 84.5059<210.857 514.359>
Fore
212.5 682 m 5
 682.211 681.791 l 1
 624.939 592.103 l 1
 625.377 591.666 l 1
 295.679 92.7539 l 1
 674.554 92.7539 l 1
 674.554 2.19141 l 1
 120.446 0.400391 l 1
 142.991 32.9258 151.099 43.8633 186.304 92.7539 c 2
 522.057 597.285 l 1
 218.555 597.494 l 5
 212.5 682 l 5
EndSplineSet
KernsSLIFO: 51 -50 0 0 50 -49 0 0 47 -69 0 0 45 -54 0 0 44 -57 0 0 43 -71 0 0 42 -54 0 0 41 -67 0 0 40 -68 0 0 39 -69 0 0 28 -56 0 0 38 -58 0 0 37 -42 0 0 27 -68 0 0 36 -68 0 0 35 -80 0 0 34 -57 0 0 33 -65 0 0 32 -57 0 0 31 -70 0 0 30 -59 0 0 26 -135 0 0 49 -130 0 0 48 -130 0 0 46 -141 0 0 25 43 0 0 24 49 0 0 22 55 0 0 21 54 0 0 19 47 0 0 18 46 0 0 10 43 0 0 0 55 0 0
EndChar
StartChar: y
Encoding: 121 121 26
Width: 422
VWidth: 9753
Flags: W
TeX: 0 0 0 0
VStem: 162 96.694<1.98242 243>
Fore
32.8037 477.4 m 5
 137 477 l 5
 211 344 l 1
 283 477 l 1
 391.196 477.4 l 1
 259 243 l 1
 258.694 243 l 1
 257.162 1.98242 l 1
 160.469 1.14453 l 1
 162 244 l 1
 162.307 244 l 1
 32.8037 477.4 l 5
EndSplineSet
KernsSLIFO: 51 -74 0 0 43 -52 0 0 41 -47 0 0 35 -54 0 0 31 -68 0 0 29 -81 0 0 37 -107 0 0
EndChar
StartChar: i
Encoding: 105 105 27
Width: 236
VWidth: 9717
Flags: W
TeX: 0 0 0 0
VStem: 66.2021 97.8969<0 484>
Fore
66.2021 484.656 m 1
 164.099 484 l 5
 164.798 -0.65625 l 5
 66.9023 0 l 1
 66.2021 484.656 l 1
EndSplineSet
KernsSLIFO: 40 -42 0 0 39 -43 0 0 27 -42 0 0 36 -42 0 0
EndChar
StartChar: l
Encoding: 108 108 28
Width: 362
VWidth: 9811
Flags: W
TeX: 0 0 0 0
HStem: 2 78.1846<149.377 301>
VStem: 61 88.377<80.1846 483.832>
Fore
149.377 485.181 m 5
 149.377 80.1846 l 1
 301 81 l 1
 301 1.38672 l 1
 61 2 l 1
 61 483.832 l 1
 149.377 485.181 l 5
EndSplineSet
KernsSLIFO: 35 -48 0 0 26 -116 0 0 49 -144 0 0 48 -144 0 0 46 -116 0 0
EndChar
StartChar: a
Encoding: 97 97 29
Width: 480
VWidth: 13985
Flags: W
TeX: 0 0 0 0
HStem: 0 21G<26 116 350 440> 98 73.46<187 286.2>
VStem: 26 414<0 0>
Fore
234 529 m 1
 262.793 461.652 l 1
 440 0 l 1
 350 0 l 1
 318 98 l 1
 155.52 97.54 l 1
 116 0 l 1
 26 0 l 1
 212.836 473.539 l 1
 234 529 l 1
286.2 171.46 m 1
 238 301 l 1
 187 171 l 1
 286.2 171.46 l 1
EndSplineSet
KernsSLIFO: 26 -88 0 0 46 -88 0 0 43 -42 0 0 35 -52 0 0 31 -41 0 0 29 51 0 0 49 -148 0 0 48 -148 0 0
EndChar
StartChar: b
Encoding: 98 98 30
Width: 460
VWidth: 9761
Flags: W
TeX: 0 0 0 0
HStem: 0.918945 87.0811<155.312 327.124> 222 78.5<154.812 239.678> 405 77<153.016 222.312>
VStem: 72.3125 80.7035<88 222 300.5 405.152>
Fore
72.3125 481.607 m 1
 187.312 482 l 1
 222.312 480 l 1
 385.812 484.5 409.412 310.6 302.355 272.208 c 1
 450.812 271 435.729 -4.61328 249.05 0.918945 c 1
 225.312 0 l 1
 122.92 0.306641 l 1
 122.92 0.612305 l 1
 72.3125 0 l 1
 72.3125 481.607 l 1
153.016 405.152 m 1
 154.812 300.5 l 1
 221.312 301 l 2
 288.799 301.479 289.312 405.5 211.312 405 c 1
 180.812 405 l 1
 153.016 405.152 l 1
153.678 222 m 1
 155.312 88 l 1
 258.604 88 l 2
 311.312 88 329.878 219.827 239.678 222 c 1
 249.312 222 l 1
 153.678 222 l 1
EndSplineSet
KernsSLIFO: 51 -58 0 0 26 -61 0 0 50 -55 0 0 49 -53 0 0 48 -53 0 0 46 -44 0 0 37 -54 0 0
EndChar
StartChar: c
Encoding: 99 99 31
Width: 528
VWidth: 9713
Flags: W
TeX: 0 0 0 0
HStem: 413.513 78.159<227.318 340.089>
VStem: 73.25 408.249<52.5 339.811>
Fore
322.213 491.672 m 0
 356.455 490.399 393.229 485.035 426.209 469.618 c 1
 426.553 469.608 l 1
 449.187 458.985 452.461 455.924 470.463 440.277 c 1
 393.313 381.389 l 5
 381.689 398.39 333.064 412.562 309.648 413.513 c 4
 246.317 416.064 178.608 371.949 150 306 c 4
 111.813 217.979 146.271 123.956 227.629 82.6396 c 4
 289.882 51.0254 356.954 68.8936 409.034 111.365 c 5
 481.499 52.5 l 1
 395.749 -26.25 247.867 -19.8379 189.249 10.5 c 0
 59.7812 77.4922 11.3115 207.846 73.25 339.811 c 0
 119.647 438.672 219.476 495.51 322.213 491.672 c 0
EndSplineSet
KernsSLIFO: 43 -45 0 0 41 -44 0 0 35 -61 0 0 31 -49 0 0
EndChar
StartChar: d
Encoding: 100 100 32
Width: 480
VWidth: 9723
Flags: HW
TeX: 0 0 0 0
HStem: -113.896 137.191<95.9272 275.7> 429.298 120.297<113.822 295.139>
VStem: 13.1363 120.269<23.2956 429.259>
Fore
129.365 483.913 m 2
 172.451 485.703 166.164 483.511 206.129 483.521 c 0
 336.458 483.53 380.232 388.191 398.751 355.948 c 0
 460.689 223.974 407.278 57.2402 282.213 14.1162 c 0
 249.751 2.91895 197.487 -2.68945 124.466 0 c 2
 62.3877 0 l 1
 62.3877 483.913 l 1
 129.365 483.913 l 2
320.718 313.537 m 4
 304.133 358.16 260.701 399.695 208.528 399.392 c 4
 190.863 399.294 186.995 400.109 150.307 399.362 c 5
 151.905 91.8662 l 5
 184.592 91.043 232.008 86.3682 267.763 104.547 c 4
 337.643 140.082 337.545 268.272 320.718 313.537 c 4
EndSplineSet
KernsSLIFO: 51 -87 0 0 26 -68 0 0 50 -87 0 0 49 -53 0 0 48 -54 0 0 37 -83 0 0
EndChar
StartChar: e
Encoding: 101 101 33
Width: 397
VWidth: 9797
Flags: W
TeX: 0 0 0 0
HStem: 0 74<151.855 333.6> 231.094 73<152.6 260.787> 411.601 73.399<151 318.6>
VStem: 70 81.855<72.877 231 304 411.601>
Fore
70 485 m 1
 70 1.06738 l 1
 333.758 0 l 1
 333.6 74 l 5
 151.855 72.877 l 5
 151.6 231 l 1
 260.787 231.094 l 1
 261.643 304.094 l 1
 152.6 304 l 1
 151 411.601 l 1
 318.6 412 l 1
 320.613 483.933 l 1
 70 485 l 1
EndSplineSet
KernsSLIFO: 47 -43 0 0 43 -47 0 0 41 -45 0 0 39 -40 0 0 35 -59 0 0 31 -47 0 0
EndChar
StartChar: f
Encoding: 102 102 34
Width: 371
VWidth: 9784
Flags: W
TeX: 0 0 0 0
HStem: 210 77.16<155.261 264.889> 409.868 72.132<154.749 315.237>
VStem: 63.2607 92.0003<0 210 287.16 409.868>
Fore
63.2607 482 m 1
 63.2607 -1.93262 l 1
 155.261 0 l 1
 155.261 210 l 1
 265.4 210 l 1
 264.889 287.16 l 1
 154.749 287.16 l 1
 154.749 409.868 l 1
 315.237 409.868 l 1
 315.739 481.933 l 5
 63.2607 482 l 1
EndSplineSet
KernsSLIFO: 51 -78 0 0 31 -50 0 0 37 -167 0 0 29 -102 0 0
EndChar
StartChar: g
Encoding: 103 103 35
Width: 541
VWidth: 9799
Flags: W
TeX: 0 0 0 0
HStem: 165.727 74.877<341.176 414.347>
VStem: 414.119 78.956<123.991 165.727>
Fore
72.5938 364.642 m 0
 129.579 486.046 280.862 558.3 423.25 491.735 c 1
 423.557 491.735 l 1
 446.2 481.112 449.043 477.37 467.044 461.723 c 1
 382.764 402.532 l 1
 372.2 417.393 327.798 429.781 306.513 430.605 c 0
 248.941 432.839 187.521 394.271 161.514 336.624 c 0
 126.805 259.683 154.648 138.121 228.601 102 c 0
 285.195 74.3691 358.601 80 390.601 110 c 1
 414.119 123.991 l 1
 414.347 165.727 l 1
 340.253 165.425 l 1
 341.176 240.604 l 5
 439.176 240.604 l 5
 493.075 240.604 l 5
 493.075 78.9102 l 1
 489.611 69.6934 480.481 60.3818 468.269 49.2041 c 0
 388.769 -17.6064 254.756 -15.2715 199.381 13.3721 c 0
 69.9141 80.3652 10.6553 232.677 72.5938 364.642 c 0
EndSplineSet
EndChar
StartChar: h
Encoding: 104 104 36
Width: 498
VWidth: 9739
Flags: W
TeX: 0 0 0 0
HStem: 204 90<159 331>
VStem: 66.7812 90.3498<0.262695 202.5 294.526 489.693> 331 100.219<0 204 294 492.45>
Fore
421.5 -93 m 29,0,-1
157.131 0.262695 m 1,1,-1
 66.7812 0.21875 l 1,2,-1
 66.7812 489.693 l 1,3,-1
 157 490 l 1,4,-1
 157.131 432.337 l 1,5,-1
 157.131 294.526 l 1,6,-1
 331 294 l 1,7,-1
 331 492.45 l 1,8,-1
 431.219 492.757 l 1,9,-1
 431.219 0 l 1,10,-1
 331 -0.306641 l 9,11,-1
 333 204 l 25,12,-1
 159 202.5 l 25,13,-1
 157.131 0.262695 l 1,1,-1
EndSplineSet
KernsSLIFO: 40 -42 0 0 39 -43 0 0 27 -42 0 0 36 -42 0 0
EndChar
StartChar: j
Encoding: 106 106 37
Width: 342
VWidth: 9700
Flags: W
TeX: 0 0 0 0
VStem: 208.288 89.612<-14.8652 475.3>
Fore
208.288 475.719 m 1
 297.9 475.3 l 1
 298.95 145.6 l 1
 297 -91.5 154.6 -85 38.0498 -38.7998 c 1
 73.5 43 l 1
 115.5 20.5 206.416 -14.8652 208.5 145 c 1
 208.288 475.719 l 1
EndSplineSet
EndChar
StartChar: k
Encoding: 107 107 38
Width: 530
VWidth: 9743
Flags: W
TeX: 0 0 0 0
VStem: 61.6953 87.7167<-1.5 250.479 252.89 480.033>
Fore
327.746 480.033 m 1
 427.703 479.589 l 1
 248.195 252 l 1
 469.305 -2.19434 l 1
 368.211 -1.75 l 1
 149.412 250.479 l 1
 149.412 -1.75 l 1
 61.6953 -1.5 l 1
 61.6953 480.283 l 1
 149.412 480.033 l 1
 149.412 252.89 l 1
 327.746 480.033 l 1
EndSplineSet
KernsSLIFO: 26 -45 0 0 49 -40 0 0 48 -40 0 0 47 -68 0 0 46 -51 0 0 43 -96 0 0 41 -93 0 0 35 -115 0 0 31 -100 0 0
EndChar
StartChar: m
Encoding: 109 109 39
Width: 574
VWidth: 9802
Flags: W
TeX: 0 0 0 0
HStem: 0 21G<67 150>
VStem: 67 84<0 279> 419 88<-2 267>
Fore
67 504 m 1
 121 438 l 1
 283.884 244.88 l 1
 443 430 l 1
 507 502 l 1
 507 -2.70898 l 1
 419 -2 l 1
 418 267 l 1
 280.569 120.571 l 1
 151 279 l 1
 150 0 l 1
 67 0 l 1
 67 504 l 1
EndSplineSet
KernsSLIFO: 40 -42 0 0 39 -43 0 0 27 -42 0 0 36 -42 0 0
EndChar
StartChar: n
Encoding: 110 110 40
Width: 500
VWidth: 9800
Flags: W
TeX: 0 0 0 0
VStem: 66.7568 96.4862<2.38184 236.188> 67.5 92.243<39.3647 275.553> 346.986 88.087<203.088 496.053> 347.986 91.514<203.088 329.386>
Fore
159.743 275.553 m 1x50
 163.243 0 l 1
 66.7568 2.38184 l 1x80
 67.5 501 l 1
 347.986 203.088 l 5x50
 346.986 496.088 l 1
 435.073 496.053 l 1x20
 439.5 -21 l 1
 159.743 275.553 l 1x50
EndSplineSet
KernsSLIFO: 40 -42 0 0 39 -43 0 0 27 -42 0 0 36 -42 0 0
EndChar
StartChar: o
Encoding: 111 111 41
Width: 531
VWidth: 9799
Flags: HWO
TeX: 0 0 0 0
HStem: -2.09473 91.4746<43.2449 489.504> 411.706 83.498<38.7019 498.7>
VStem: 252.31 10.061<89.3799 411.706>
Fore
252.31 411.706 m 5
 241.466 411.706 231.364 410.302 222 407.678 c 4
 162.622 391.044 132.952 325.393 132.449 258 c 4
 131.829 174.977 175.474 89.3094 262.371 89.3799 c 5
 348.784 89.3123 394.162 168.9 394.759 249 c 4
 395.306 322.238 358.415 395.904 281.226 409.5 c 4
 272.146 411.099 262.509 411.867 252.31 411.706 c 5
255.981 495.204 m 5
 270.325 495.089 283.997 493.941 297 491.855 c 4
 427.535 470.92 490.671 355.501 488.822 241.5 c 4
 486.832 118.833 409.6 -2.19229 260.131 -2.09473 c 5
 111.606 -2.19522 39.5704 126.855 42.2079 253.5 c 4
 44.5128 364.177 103.847 473.017 219 492.219 c 4
 230.747 494.178 243.074 495.204 255.981 495.204 c 5
EndSplineSet
KernsSLIFO: 51 -80 0 0 26 -49 0 0 50 -79 0 0 37 -76 0 0
EndChar
StartChar: p
Encoding: 112 112 42
Width: 412
VWidth: 9745
Flags: W
TeX: 0 0 0 0
HStem: 212.461 69.539<151.919 316.718> 420 64.104<151.919 318.193>
VStem: 57.1982 94.7208<2.37305 211.849 282.529 419.143>
Fore
57.1982 484.182 m 1
 222.851 484.104 l 2
 405.442 487.895 407.614 210.862 216.361 212.461 c 2
 151.919 211.849 l 1
 151.919 2.37305 l 1
 57.1982 0 l 1
 57.1982 484.182 l 1
151.919 419.143 m 5
 151.577 282.529 l 1
 196 282 l 2
 288.86 282.029 289.117 417.837 192.198 420 c 6
 151.919 419.143 l 5
EndSplineSet
KernsSLIFO: 51 -75 0 0 50 -59 0 0 29 -94 0 0 37 -170 0 0
EndChar
StartChar: q
Encoding: 113 113 43
Width: 543
VWidth: 9799
Flags: W
TeX: 0 0 0 0
HStem: -7 85.4727<64.6437 314.262> 415.787 79.417<86.4765 439.629>
VStem: 48.7988 446.22<218.881 334.447 246.441 264.871>
Fore
267.444 415.787 m 4
 100.389 415.787 104.144 78.4707 275.518 78.4727 c 4
 305.321 78.4727 313.493 92.5703 332.176 108 c 1
 303.48 151.705 l 1
 367.476 187.25 l 1
 381.411 166.025 l 1
 422.973 263.372 399.894 417.919 267.444 415.787 c 4
48.7988 264.871 m 0
 55.4092 382.8 127.014 495.204 262.139 495.204 c 0
 418.421 493.945 495.019 370.174 495.019 246.441 c 0
 495.019 239.255 494.76 232.067 494.244 224.905 c 0
 491.221 170.502 473.355 117.172 440.914 75.3975 c 1
 481.226 14 l 1
 408.176 -24 l 1
 375.605 25.6064 l 1
 341.435 1.89258 317.311 -6.99902 265.976 -7 c 0
 111.105 -7 39.3994 133.308 48.7988 264.871 c 0
EndSplineSet
KernsSLIFO: 26 -55 0 0 49 -42 0 0 48 -43 0 0
EndChar
StartChar: r
Encoding: 114 114 44
Width: 470
VWidth: 9701
Flags: W
TeX: 0 0 0 0
HStem: 208.022 72.478<148.289 224.777> 411.5 76.404<146.114 326.784>
VStem: 60.5 87.789<0 206.906 279.787 410.699>
Fore
60.5 486.844 m 5
 229.123 487.904 l 2
 381.281 491.062 407.964 291.283 302.011 228.167 c 1
 414.711 0.580078 l 1
 320.789 0 l 1
 222.692 208.261 l 1
 216.902 207.753 220.796 207.974 214.595 208.022 c 2
 148.289 206.906 l 1
 148.289 -0.162109 l 1
 60.5 0 l 5
 60.5 486.844 l 5
146.114 410.699 m 1
 145.789 279.787 l 1
 200.789 280.5 l 2
 293.649 280.529 297.708 409.327 200.789 411.5 c 2
 146.114 410.699 l 1
EndSplineSet
KernsSLIFO: 26 -74 0 0 49 -65 0 0 48 -65 0 0 47 -67 0 0 46 -56 0 0 43 -67 0 0 41 -60 0 0 35 -65 0 0 31 -70 0 0
EndChar
StartChar: s
Encoding: 115 115 45
Width: 407
VWidth: 13879
Flags: W
TeX: 0 0 0 0
HStem: -7.84766 89.3477<169.738 259.978> 427.5 73.5<170.111 258.668>
VStem: 68.749 86.013<332.111 419.623>
Fore
44.5 72 m 1
 101.863 139.902 l 1
 138.317 91.3301 179.26 81.5 211 81.5 c 1
 311.5 83 306 190.5 229.5 219 c 1
 198.659 228.434 196.003 224.695 159.281 240.015 c 0
 99.0527 265.138 68.749 321 68.749 349.35 c 0
 68.749 418.579 89.8643 501 223 501 c 0
 286.398 501 342 477 360 438 c 1
 300 390 l 0
 282.294 412.307 249.168 428.954 217.5 427.5 c 0
 181.047 425.824 154.762 406.965 154.762 364.772 c 0
 154.762 339.648 179.274 320.426 217.5 307.5 c 2
 278.369 285.42 l 2
 418.436 246.117 397.602 96.7461 342.701 41.0498 c 0
 303.078 0.851562 246.189 -6.17188 200.227 -7.84766 c 0
 161.554 -9.25586 73.0303 13.377 44.5 72 c 1
EndSplineSet
KernsSLIFO: 51 -45 0 0 26 -41 0 0 50 -43 0 0 46 -47 0 0 37 -42 0 0
EndChar
StartChar: t
Encoding: 116 116 46
Width: 428
VWidth: 9804
Flags: W
TeX: 0 0 0 0
HStem: 402.73 78.52<45.6074 160.058 265.434 386.393>
VStem: 160.058 105.376<0.5 403>
Fore
45.6074 481.25 m 5
 386.99 481.25 l 1
 386.393 402.73 l 1
 265.434 403.23 l 1
 263.357 0.5 l 1
 158.058 0 l 5
 157.981 1.20605 l 5
 160.058 403 l 5
 45.0098 402.73 l 5
 45.6074 481.25 l 5
EndSplineSet
KernsSLIFO: 51 -64 0 0 37 -114 0 0 29 -88 0 0
EndChar
StartChar: u
Encoding: 117 117 47
Width: 457
VWidth: 9778
Flags: HW
TeX: 0 0 0 0
HStem: 184.986 293.764<62.9951 391.533>
VStem: 62.0469 90.0049<279.156 477.764> 304.582 86.951<229.392 477.783> 305.53 89.4027<28.4 444.26>
Fore
152.052 477.764 m 1xd0
 152 187 l 2
 152.359 81.042 305 59 307 191 c 5
 308.53 189.47 l 5xd0
 308.582 477.783 l 5
 395.533 478.75 l 5xe0
 398.933 185.599 l 6
 402.081 -65.5166 54.0283 -54.0898 62.9951 184.986 c 2
 62.0469 478.362 l 1
 152.052 477.764 l 1xd0
EndSplineSet
KernsSLIFO: 51 -66 0 0 50 -44 0 0 37 -62 0 0
EndChar
StartChar: v
Encoding: 118 118 48
Width: 503
VWidth: 9789
Flags: W
TeX: 0 0 0 0
VStem: 30.416 442.168<475 475>
Fore
389.2 475.739 m 1
 472.584 475 l 1
 274.593 28.6787 l 1
 246.246 -36.1699 l 1
 224.638 16.792 l 1
 30.416 475 l 1
 122.2 475.739 l 1
 253.2 170.739 l 5
 389.2 475.739 l 1
EndSplineSet
KernsSLIFO: 103 -153 0 0 100 -146 0 0 51 -69 0 0 43 -42 0 0 35 -45 0 0 31 -55 0 0 37 -149 0 0 29 -138 0 0
EndChar
StartChar: w
Encoding: 119 119 49
Width: 697
VWidth: 9789
Flags: HW
TeX: 0 0 0 0
HStem: 471 20G<18.2246 131>
Fore
438 196 m 5
 578.225 484.261 l 1
 676 484 l 1
 468.785 29.4395 l 1
 440.438 -35.4092 l 1
 418.83 17.5527 l 1
 345.844 189.73 l 1
 274.4 28.6787 l 1
 246.055 -36.1699 l 1
 224.445 16.792 l 1
 18.2246 491 l 1
 131 491 l 1
 266 193 l 5
 358 375 l 5
 438 196 l 5
EndSplineSet
KernsSLIFO: 51 -68 0 0 43 -42 0 0 35 -44 0 0 31 -55 0 0 37 -149 0 0 29 -138 0 0
EndChar
StartChar: x
Encoding: 120 120 50
Width: 558
VWidth: 9774
Flags: W
TeX: 0 0 0 0
HStem: 0 21G<391.88 510.88>
VStem: 47.1201 463.76<0 0.280273>
Fore
472.966 464.277 m 5
 363.88 464 l 1
 279.88 330 l 1
 189.88 464 l 1
 74.9941 463.91 l 1
 90.7764 441.143 222.88 258 222.88 258 c 1
 222.88 258 62.9014 23.0479 47.1201 0.280273 c 1
 163.88 0 l 1
 279.005 179.868 l 1
 391.88 0 l 1
 510.88 0 l 5
 340.88 256 l 5
 472.966 464.277 l 5
EndSplineSet
KernsSLIFO: 47 -54 0 0 43 -78 0 0 41 -74 0 0 35 -92 0 0 31 -80 0 0
EndChar
StartChar: z
Encoding: 122 122 51
Width: 515
VWidth: 9774
Flags: W
TeX: 0 0 0 0
HStem: 0 84<222.5 465.288> 386 77.024<136.461 300.5>
VStem: 48.5 418<0 84>
Fore
136.461 463.024 m 1
 465.259 464.277 l 1
 425.169 401.496 l 1
 425.476 401.19 l 1
 222.5 84 l 1
 466.5 84 l 1
 465.288 1.53418 l 1
 48.5 0 l 1
 70.5 30 59.8564 21.7764 84.5 56 c 2
 300.5 384 l 1
 112.5 386 l 1
 136.461 463.024 l 1
EndSplineSet
KernsSLIFO: 35 -43 0 0
EndChar
StartChar: exclam
Encoding: 33 33 53
Width: 638
Flags: HW
TeX: 0 0 0 0
HStem: 62.248 1.79688<245.07 361.5>
VStem: 245.07 116.43<-40.5104 161.504> 274.938 90.5615<255 505.473> 280.219 90.5625<445.464 695.938>
Fore
280.219 695.938 m 1x90
 370.781 695.938 l 1x90
 365.5 255 l 1
 274.938 255 l 1xa0
 280.219 695.938 l 1x90
EndSplineSet
Refer: 60 46 N 1 0 0 1 245.5 2.5 2
EndChar
StartChar: quotesingle
Encoding: 39 39 55
Width: 154
Flags: W
TeX: 0 0 0 0
HStem: 558 141<19.7686 68.2686>
VStem: 19.7686 114.501<665.941 769.444>
Fore
68.2686 558 m 1
 89.2686 591 123.001 626.5 134.27 696 c 1
 134.27 777.66 19.624 771.58 19.7686 699 c 1
 18.3115 671.697 59.2686 594 68.2686 558 c 1
EndSplineSet
EndChar
StartChar: parenright
Encoding: 41 41 57
Width: 295
Flags: W
TeX: 0 0 0 0
VStem: 147.185 94.4074<49.6336 198.239> 147.294 93.1416<467.751 606.321>
Fore
241.593 150 m 5x80
 228.775 8.87695 152.1 -85.4668 53.4814 -133.816 c 5
 53.4814 -21.7119 l 5
 101.904 16.2021 137.473 73.3574 147.146 150 c 5
 148.872 163.694 148.388 497.188 147.294 507.5 c 1x40
 139.279 583.093 102.884 638.845 52.6611 674.976 c 1
 52.6611 777.711 l 1
 153.676 732.801 231.67 642.123 241.593 505 c 1
 242.3 495.235 242.839 163.724 241.593 150 c 5x80
EndSplineSet
EndChar
StartChar: comma
Encoding: 44 44 58
Width: 154
Flags: W
TeX: 0 0 0 0
HStem: -55 124<19.7617 38.7617>
VStem: 19.7617 114.501<33.3059 163.354>
Fore
19.7617 69 m 5
 19.6172 141.58 134.263 147.66 134.263 66 c 5
 133.263 -3.5 63.2617 -40.5 38.7617 -55 c 5
 54.541 -35.9619 88.2617 35 63.7617 28 c 5
 42.2617 21.5 18.877 41.543 19.7617 69 c 5
EndSplineSet
EndChar
StartChar: hyphen
Encoding: 45 45 59
Width: 470
VWidth: 13882
Flags: W
TeX: 0 0 0 0
HStem: 315.656 90.5625<40.5 429.5>
Fore
429.5 315.656 m 5
 429.5 406.219 l 5
 40.5 405 l 5
 40.5 314.438 l 5
 429.5 315.656 l 5
EndSplineSet
EndChar
StartChar: period
Encoding: 46 46 60
Width: 129
Flags: W
TeX: 0 0 0 0
HStem: 59.748 1.79688<-0.429688 116>
VStem: -0.429688 116.43<-43.0104 159.004>
Fore
-0.429688 59.748 m 1
 -0.429688 136.099 116 137.897 116 61.5449 c 1
 116 -20.1934 -0.429688 -19.2969 -0.429688 59.748 c 1
EndSplineSet
EndChar
StartChar: zero
Encoding: 48 48 61
Width: 569
Flags: W
TeX: 0 0 0 0
VStem: 31.2197 91.3818<252.652 459.951> 445.108 92.501<239.975 483.362>
Fore
122.602 366.92 m 5
 122.602 279.021 135.702 215.387 167.108 170.836 c 0
 226.585 86.4678 336.021 75.2998 396.108 154.897 c 0
 428.337 197.592 445.108 267.673 445.108 360 c 5
 445.108 454.894 425.752 523.225 388.108 564.67 c 4
 322.462 636.945 211.488 628.458 157.108 535.496 c 4
 133.592 495.295 122.602 438.482 122.602 366.92 c 5
31.2197 360.797 m 5
 31.2197 456.562 49.667 533.02 85.1084 588.229 c 4
 172.08 723.711 348.304 736.271 452.108 628.814 c 4
 506.922 572.074 537.609 481.591 537.609 357.5 c 5
 540.014 239.09 516.99 147.587 473.029 88 c 0
 378.38 -40.2988 196.85 -28.542 99.1084 101.368 c 0
 53.4355 162.072 31.2197 246.886 31.2197 360.797 c 5
EndSplineSet
EndChar
StartChar: one
Encoding: 49 49 62
Width: 249
VWidth: 13882
Flags: W
TeX: 0 0 0 0
HStem: 0 21G<121.06 218.56>
VStem: 118.63 97.4297<0 512.645>
Fore
118.63 512.645 m 5
 92.9404 484.822 l 5
 30.4404 539.822 l 5
 164.19 665.76 l 5
 215.44 719.822 l 5
 216.06 605 l 5
 216.19 604.822 l 5
 216.06 604.689 l 5
 217.48 77.625 l 1
 218.498 77.625 l 1
 218.56 0 l 1
 121.06 0 l 1
 120.998 77.625 l 1
 119.918 77.625 l 1
 118.63 512.645 l 5
EndSplineSet
EndChar
StartChar: two
Encoding: 50 50 63
Width: 540
VWidth: 13879
Flags: W
TeX: 0 0 0 0
HStem: -0.5625 89.0068<221.3 513.5>
VStem: 26.5 487<0 90.5625>
Fore
26.5 0 m 5
 341.5 389 l 6
 411.5 495 393.5 595 305.5 615 c 4
 266.3 623.909 190.5 606 170.5 546 c 5
 92.5 596 l 5
 140.5 696 236.468 702.941 284.5 702 c 4
 488.5 698 551.5 494 393.5 312 c 6
 221.3 88.4443 l 5
 513.5 90.5625 l 5
 513.5 0 l 5
 126.5 -0.5625 l 5
 126.5 0 l 5
 26.5 0 l 5
EndSplineSet
EndChar
StartChar: three
Encoding: 51 51 64
Width: 510
VWidth: 13879
Flags: W
TeX: 0 0 0 0
HStem: -8 88<154.079 442.07> 334 80<201.57 293.07>
VStem: 29.0703 368.539<44 391.378>
Fore
283.57 414 m 5
 342.665 423.901 381.07 508 351.07 568 c 4
 336.086 597.97 309.943 612.529 277.07 620 c 5
 238.469 627.489 165 624 135 572 c 5
 59 620 l 5
 115 696 214.968 702.941 263 702 c 4
 441.321 698.504 516.531 519.267 397.609 391.378 c 5
 574.595 208.14 444.301 -7.88184 243.07 -8 c 0
 191.996 -9.88086 123.07 -6 29.0703 44 c 1
 87.3105 111.9 l 1
 163.782 75.1562 203.07 78 247.07 80 c 1
 397.07 80 429.07 288 293.07 334 c 5
 201.57 334.5 l 5
 199.07 412 l 5
 283.57 414 l 5
EndSplineSet
EndChar
StartChar: four
Encoding: 52 52 65
Width: 477
VWidth: 13985
Flags: W
TeX: 0 0 0 0
HStem: 0 21G<316.75 416.75> 161.5 81.1855<139.861 316.75 416.75 459.25> 702 20G<371.75 413.75>
VStem: 319.25 94.5<0 159 244.5 511>
Fore
319.361 242.689 m 1
 319.25 511 l 1
 139.861 242.686 l 1
 319.361 242.689 l 1
413.75 722 m 1
 414.2 244.5 l 1
 460.25 244.5 l 1
 459.25 159 l 1
 416.75 159 l 1
 416.75 0 l 1
 316.75 0 l 1
 316.75 161.5 l 1
 123.75 161.5 l 1
 16.75 162.5 l 5
 16.75 205 l 5
 371.75 722 l 1
 413.75 722 l 1
EndSplineSet
EndChar
StartChar: five
Encoding: 53 53 66
Width: 509
VWidth: 13879
Flags: W
TeX: 0 0 0 0
HStem: 4 78.5<168.002 418.196> 352.5 70<201.257 279.976> 620 80<203.757 402.757>
VStem: 110.257 91<422.5 620>
Fore
111.257 700 m 1
 110.257 347.5 l 1
 227.021 352.5 l 1
 267.756 350.062 310.248 336.323 343.521 310 c 0
 422.522 247.5 378.287 84.5059 245.257 82.5 c 1
 173.419 82.5 140.919 97.5 78.4189 135 c 1
 30.4189 73 l 5
 80.4189 38 165.919 0 249.257 4 c 1
 494.257 4 540.757 284 399.257 379 c 0
 340.477 418.464 293.757 425 201.257 422.5 c 1
 203.757 620 l 1
 405.257 620 l 9
 402.757 700 l 25
 111.257 700 l 1
EndSplineSet
EndChar
StartChar: six
Encoding: 54 54 67
Width: 590
Flags: W
TeX: 0 0 0 0
HStem: 610 88<305.143 380.543>
VStem: 32 105.142<338.971 601.8> 410.142 105<-7.59998 446.1>
Fore
48 255.5 m 0
 42.9951 310.558 19.5 432 87.5 560 c 0
 133.054 645.748 223.5 702.5 316 702.5 c 1
 378.429 702.529 420 692 445 677 c 1
 408 602 l 1
 400 610 367.262 627.443 303.5 620 c 0
 175 605 133.5 473 133.5 370.5 c 1
 134.611 363.611 133.389 362.333 137 353 c 1
 268 497 416.5 417.5 447 400 c 0
 490.473 375.057 531.473 306.25 531.473 223.647 c 0
 531.473 166.444 516.344 125.279 488.507 89.9658 c 1
 442.401 31.4756 382.599 2.52539 304.507 2.49707 c 1
 220.455 2.4668 153.067 37.9443 107.507 104.16 c 1
 84.5898 137.466 50.5 228 48 255.5 c 0
154.5 225.5 m 0x90
 154.5 43.3662 445 44.6641 445 233 c 0
 445 302.061 394.145 342.748 339.5 357.5 c 1
 302.633 364.229 296.476 358.463 260.5 349.5 c 1
 208.026 333.471 154.5 269.5 154.5 225.5 c 0x90
EndSplineSet
EndChar
StartChar: seven
Encoding: 55 55 68
Width: 481
VWidth: 13985
Flags: W
TeX: 0 0 0 0
HStem: 0 21G<41.8516 164.639> 598.5 92.5<71.8242 324.736>
Fore
71.8242 691 m 5
 71.7363 598.5 l 5
 324.736 598.5 l 5
 41.8516 0 l 1
 164.639 0 l 1
 439.148 603.102 l 5
 437.764 606.273 l 5
 437.764 690 l 5
 71.8242 691 l 5
EndSplineSet
EndChar
StartChar: eight
Encoding: 56 56 69
Width: 555
Flags: W
TeX: 0 0 0 0
VStem: 35.1719 101.3<141.291 298.869> 65.8623 91.5986<453 587.518> 387.805 93.0576<458.2 592.029> 425.355 94.4727<132.467 301.964>
Fore
65.8623 505 m 1x40
 65.8623 568.476 93.9785 629.549 134.862 660.786 c 1
 211.191 719.106 330.862 717 403.862 665.767 c 1
 447.849 634.821 480.862 571.945 480.862 505 c 1x60
 478.862 469 456.862 431 420.744 382.627 c 5
 474.862 347 519.828 289.434 519.828 206.831 c 4x10
 519.828 149.628 508.699 106.463 480.862 71.1494 c 5
 434.756 12.6592 356.954 -17.291 278.862 -17.3193 c 5
 194.81 -17.3496 113.422 17.1279 67.8623 83.3438 c 5
 44.9453 116.65 35.1719 156.173 35.1719 205.778 c 4xa0
 35.1719 286.405 79.8623 343 130.118 379.46 c 5
 88.4863 423.93 67.8623 465 65.8623 505 c 1x40
136.472 211.711 m 4x90
 136.472 29.5771 425.355 23.8477 425.355 212.184 c 4
 425.355 281.245 380.377 323.123 325.733 337.875 c 5
 288.866 344.605 267.313 345.311 231.337 336.348 c 5
 178.864 320.319 136.472 278.756 136.472 211.711 c 4x90
303.37 418.989 m 1
 350.213 429.671 387.805 464.739 387.805 524.997 c 0
 387.805 662.812 157.461 661.418 157.461 523.607 c 0x60
 157.461 463.579 194.475 428.192 243.148 418.325 c 1
 263.191 416.245 283.268 416.588 303.37 418.989 c 1
EndSplineSet
EndChar
StartChar: nine
Encoding: 57 57 70
Width: 515
Flags: W
TeX: 0 0 0 0
VStem: 38.8848 93.0986<324.678 707.8> 380.926 95.0576<493.291 685.9>
Fore
-946.017 -188 m 28,0,-1
131.983 501 m 4,1,-1
 131.983 354.945 305.983 362 355.983 436 c 5,4,-1
 371.983 456.5 379.663 492.66 380.926 507.997 c 5,7,-1
 377.983 668 131.983 657 131.983 501 c 4,1,-1
38.8848 495.393 m 4,10,-1
 38.8848 783 481.983 782 475.983 496 c 4,13,-1
 475.875 490.839 476.327 500.945 475.983 496 c 5,16,-1
 468.483 381 445.983 246 278.983 -19 c 5,19,-1
 150.983 -18 l 5,20,-1
 219.562 69.9209 287.983 170 329.983 284 c 4,23,-1
 333.637 293.916 335.206 312.318 337.925 322.5 c 5,26,-1
 307.983 302 268.626 295.844 237.983 296 c 4,29,-1
 140.14 296.5 38.8848 360.997 38.8848 495.393 c 4,10,-1
EndSplineSet
EndChar
StartChar: question
Encoding: 63 63 73
Width: 548
Flags: W
TeX: 0 0 0 0
HStem: 59.748 1.79688<174.053 290.483> 677.5 71.912<166.416 343.918>
VStem: 174.053 116.43<-43.0104 159.004> 194.386 91.126<220 319.74> 369.483 85.892<510.068 666.5>
Fore
254.483 677.5 m 0xd8
 323.279 677.5 366.983 642.5 369.483 562.5 c 0
 370.744 522.168 334.212 489.015 306.975 461.715 c 2
 264.049 415.895 l 2
 219.594 370.09 194.386 336.207 194.386 252.753 c 2
 193.357 220 l 1
 284.483 220 l 1
 285.512 236.793 l 2
 285.512 300.598 284.317 313.677 336.085 369.594 c 2
 378.062 413.861 l 2
 430.587 467.941 455.375 510.828 455.375 567.737 c 0
 455.375 676.065 380.111 749.412 261.17 749.412 c 0
 183.59 749.412 134.483 725 92.625 678.744 c 1
 145 612.5 l 5
 150 630 186.739 677.5 254.483 677.5 c 0xd8
EndSplineSet
Refer: 60 46 N 1 0 0 1 174.483 0 2
EndChar
StartChar: numbersign
Encoding: 35 35 74
Width: 455
Flags: W
TeX: 0 0 0 0
HStem: 219.103 86.6953<46.8477 104.621 182.316 271.902 349.598 408.152> 389.63 90.6963<46.8477 104.621 182.316 271.902 349.598 408.152>
VStem: 104.621 77.6953<69.5 219.349 306.149 389.63 480.43 620> 271.902 77.6953<69.5 219.103 305.902 389.384 480.184 620>
Fore
104.621 620 m 1
 182.316 620 l 1
 182.316 480.326 l 1
 271.902 480.184 l 1
 271.902 620 l 1
 349.598 620 l 1
 349.598 480.079 l 1
 408.152 480 l 1
 408.152 389.305 l 1
 349.598 389.384 l 1
 349.598 305.798 l 1
 408.152 305.719 l 1
 408.152 219.023 l 1
 349.598 219.103 l 1
 349.598 69.5 l 1
 271.902 69.5 l 1
 271.902 219.207 l 1
 182.316 219.349 l 1
 182.316 69.5 l 1
 104.621 69.5 l 1
 104.621 219.453 l 1
 46.8477 219.531 l 1
 46.8477 306.227 l 1
 104.621 306.149 l 1
 104.621 389.735 l 1
 46.8477 389.812 l 1
 46.8477 480.508 l 1
 104.621 480.43 l 1
 104.621 620 l 1
182.316 389.63 m 1
 182.316 306.044 l 1
 271.902 305.902 l 1
 271.902 389.488 l 1
 182.316 389.63 l 1
EndSplineSet
EndChar
StartChar: dollar
Encoding: 36 36 75
Width: 733
VWidth: 13879
Flags: W
TeX: 0 0 0 0
HStem: 657.5 25.0391<331.525 407.025>
VStem: 332.025 75<657.5 750> 337.025 75<-30 110>
Fore
337.025 110 m 25xa0
 412.025 110 l 25
 412.025 -30 l 25
 336.525 -30.5 l 25
 337.025 110 l 25xa0
332.025 750 m 25xc0
 407.025 750 l 25
 407.025 657.5 l 25
 331.525 657 l 25
 332.025 750 l 25xc0
358.426 682.539 m 1
 424.994 682.539 464.182 676.086 508.713 640.133 c 1
 467.744 578.367 l 1
 436.572 606.023 399.878 615.003 352.191 610.172 c 5
 264.682 598.648 229.502 479.727 360.869 429.023 c 1
 433.684 403.672 l 1
 511.613 373.711 611.58 279.219 551.463 143.242 c 0
 523.117 79.127 462.629 9.57031 295.637 32.6172 c 1
 223.64 45.9033 207.682 56.5859 163.15 80.5547 c 1
 179.182 169.977 l 1
 237.837 142.082 269.556 130.534 301.426 122.039 c 1
 357.089 103.602 429.002 113.281 469.08 173.203 c 1
 506.932 230.82 470.471 299.56 409.191 320.703 c 1
 382.473 332.227 366.531 339.32 337.713 349.742 c 1
 110.477 419.984 162.476 682.539 358.426 682.539 c 1
EndSplineSet
EndChar
StartChar: percent
Encoding: 37 37 76
Width: 560
VWidth: 13882
Flags: W
TeX: 0 0 0 0
HStem: 465.982 5.68794e-05<86296.2 86314>
VStem: 86293.5 3.14058<465.982 465.982> 86300.9 3.61612<465.982 465.982> 86306.7 3.36571<465.982 465.982> 86314.2 3.46853<465.982 465.982>
Fore
107.005 472.7 m 1
 107.005 415.561 190 414.914 190 474 c 1
 190 529.191 107.005 527.892 107.005 472.7 c 1
39.6553 471.706 m 1
 39.6553 616.471 259.408 596.007 259.408 469.019 c 1
 259.408 333.071 39.6553 321.835 39.6553 471.706 c 1
371.436 161.129 m 5
 371.436 103.989 454.431 103.343 454.431 162.429 c 5
 454.431 217.62 371.436 216.32 371.436 161.129 c 5
304.086 160.135 m 5
 304.086 304.899 523.839 284.436 523.839 157.447 c 5
 523.839 21.5 304.086 10.2637 304.086 160.135 c 5
461.992 558.909 m 1
 518.908 500.235 l 1
 86.0146 52.29 l 1
 29.0996 110.965 l 1
 461.992 558.909 l 1
EndSplineSet
EndChar
StartChar: ampersand
Encoding: 38 38 77
Width: 754
VWidth: 13876
Flags: W
TeX: 0 0 0 0
HStem: -22.5 77.475<285.705 414.567>
VStem: 547.998 83<285.117 346>
Fore
303.498 410 m 2
 226.438 488.628 240.492 541.434 270.998 577.5 c 0
 311.101 624.913 407.498 612 434.998 572 c 1
 489.998 624.5 l 1
 459.998 687 304.382 705.961 233.498 650 c 0
 193.088 618.097 128.981 536.986 189.4 421.424 c 1
 129.995 377.82 33.7354 280.831 67.498 150 c 0
 99.998 30 224.998 -30 327.498 -22.5 c 0
 414.274 -13.6514 476.23 16.7402 520.473 57.0801 c 1
 574.998 0 l 1
 693.498 0 l 1
 575.012 124.562 l 1
 623.205 205.885 629.934 299.167 630.998 346 c 1
 547.998 346 l 1
 551.047 298.956 540.193 240.334 514.677 187.991 c 1
 303.498 410 l 2
236.316 354.548 m 1
 464.543 115.63 l 1
 432.528 82.9453 391.137 59.8076 339.998 55 c 0
 292.498 50 182.498 85 154.998 170 c 0
 131.411 238.616 179.55 309.07 236.316 354.548 c 1
EndSplineSet
EndChar
StartChar: asterisk
Encoding: 42 42 78
Width: 212
VWidth: 13882
Flags: W
TeX: 0 0 0 0
HStem: 678.125 38.2715<37.1992 71.2763 145.536 173.887>
VStem: 86.1992 40<732.669 754.804>
Fore
173.887 678.125 m 1
 180.004 697.601 l 1
 173.993 716.396 l 1
 141.535 716.667 l 1
 136.595 716.667 126.337 725.328 126.199 732.669 c 1
 126.199 732.671 l 1
 126.396 755.201 l 1
 106.2 758.567 l 1
 86.4053 754.804 l 1
 86.1992 732.669 l 1
 86.001 726.689 76.2227 715.294 71.5293 715.332 c 1
 36.7461 715.909 l 1
 31.9961 697.602 l 1
 37.1992 678.125 l 1
 63.5273 678.125 l 1
 70.8662 678.667 76.1992 672 68.8662 665.998 c 1
 35.3164 633.713 l 1
 44.3994 616.801 l 1
 61.6992 605 l 1
 101.866 644.581 l 1
 101.866 644.581 104.512 647.062 106.815 647.153 c 0
 108.815 647.231 111.199 644.979 111.199 644.979 c 1
 151.699 605 l 1
 168.001 616.798 l 1
 178.082 633.713 l 1
 145.531 666.024 l 1
 139.528 670.67 136.866 678 145.536 677.999 c 1
 173.887 678.125 l 1
EndSplineSet
EndChar
StartChar: plus
Encoding: 43 43 79
Width: 495
VWidth: 13882
Flags: W
TeX: 0 0 0 0
HStem: 315.656 90.5625<64.25 204.421 294.982 430.75>
VStem: 203.688 90.5615<422.41 549> 207.137 86.5615<160 314.935 404.78 530.086>
Fore
430.75 315.656 m 5xa0
 430.75 406.219 l 5
 293.698 404.78 l 5xa0
 294.25 549 l 5
 203.688 549 l 5xc0
 207.137 403.496 l 5
 64.25 404.562 l 5
 64.25 314 l 5
 204.421 314.935 l 5
 204.906 160 l 5
 295.469 160 l 5
 294.982 315.218 l 5
 430.75 315.656 l 5xa0
EndSplineSet
EndChar
StartChar: slash
Encoding: 47 47 80
Width: 500
VWidth: 13985
Flags: W
TeX: 0 0 0 0
HStem: 0 21G<62.7471 169.534>
VStem: 62.7471 374.506<0 703.701>
Fore
169.534 0 m 5
 62.7471 0 l 5
 337.247 702.5 l 5
 437.253 703.701 l 5
 169.534 0 l 5
EndSplineSet
EndChar
StartChar: less
Encoding: 60 60 81
Width: 618
VWidth: 13985
Flags: W
TeX: 0 0 0 0
HStem: 136 460<529 535>
VStem: 83 452<374 596>
Fore
535 596 m 5
 142.051 402.285 l 5
 83 374 l 5
 159.031 330.918 l 5
 529 136 l 5
 530 239.112 l 5
 284.006 370.84 l 5
 535 496 l 5
 535 596 l 5
EndSplineSet
EndChar
StartChar: equal
Encoding: 61 61 82
Width: 665
VWidth: 13985
Flags: W
TeX: 0 0 0 0
HStem: 201 88<113.5 553.5> 439 88<111.5 551.5>
Fore
113.5 289 m 1
 111.5 201 l 1
 553.5 200 l 1
 555.5 288 l 1
 113.5 289 l 1
109.5 527 m 1
 111.5 439 l 1
 553.5 438 l 1
 551.5 526 l 1
 109.5 527 l 1
EndSplineSet
EndChar
StartChar: greater
Encoding: 62 62 83
Width: 618
VWidth: 13985
Flags: W
TeX: 0 0 0 0
HStem: 136 460<83 89>
VStem: 83 452<374 596>
Fore
83 596 m 5
 475.949 402.285 l 5
 535 374 l 5
 458.969 330.918 l 5
 89 136 l 5
 88 239.112 l 5
 333.994 370.84 l 5
 83 496 l 5
 83 596 l 5
EndSplineSet
EndChar
StartChar: at
Encoding: 64 64 84
Width: 899
Flags: HW
TeX: 0 0 0 0
HStem: -97 67.5<262.325 593.175> 522.5 70<182.25 721.176>
VStem: 87.75 77.5<99.25 424.25> 265.973 73.668<94.3746 409.093> 740.28 70.9697<162.25 428.749>
Fore
339.641 248.43 m 0
 339.641 129.926 498.217 110.39 525.916 208.58 c 0
 529.763 220.431 527.454 280.529 525.916 290.688 c 0
 497.446 396.497 339.641 372.017 339.641 248.43 c 0
87.75 232.5 m 0
 87.75 409.747 208.75 592.5 453.75 592.5 c 0
 718.75 592.5 811.25 422.5 811.25 254 c 0
 811.25 182.5 795.238 140.229 740 92.5 c 1
 662 47.5 559.18 48.1367 529.25 108 c 1
 433.153 42.0889 268.321 86.8379 265.973 245.316 c 0
 263.723 397.189 405.321 450.586 502.974 406.553 c 0
 511.898 402.528 522.88 395.456 528.735 386.089 c 1
 528.344 417.312 l 1
 601.007 417.312 l 1
 595.78 313.733 583.191 262.155 597.007 158.576 c 1
 608.973 123.192 670.5 113 702.5 145 c 0
 732.879 175.379 740 182.5 740.28 250 c 0
 740.851 387.499 659.809 522.5 455.25 522.5 c 0
 245.25 522.5 165.25 380 165.25 232.5 c 0
 165.25 130 260.297 -25.5522 427.75 -29.5 c 0
 555 -32.5 580 -12.5 637.5 10 c 1
 649.827 -12.5 660 -27.5 672.5 -47.5 c 1
 617.5 -75 570 -97.5 427.75 -97 c 1
 200.25 -97 87.75 85 87.75 232.5 c 0
EndSplineSet
EndChar
StartChar: bracketleft
Encoding: 91 91 85
Width: 348
VWidth: 13985
Flags: W
TeX: 0 0 0 0
HStem: 0.494141 91.8242<156.253 285.052> 609.494 92.8271<155.819 282.552>
VStem: 61.7471 94.0059<0 0.494141 92.3184 609.494 702.321 702.5>
Fore
62.4658 0 m 1
 61.7471 703.701 l 1
 155.753 702.5 l 1
 155.753 702.321 l 1
 283.753 702.5 l 1
 282.552 609.494 l 1
 155.819 609.494 l 1
 156.187 92.3184 l 1
 286.253 92.5 l 1
 285.052 0.494141 l 1
 156.253 0.494141 l 1
 156.253 0 l 1
 62.4658 0 l 1
EndSplineSet
EndChar
StartChar: backslash
Encoding: 92 92 86
Width: 492
VWidth: 13985
Flags: W
TeX: 0 0 0 0
HStem: 0 21G<326.466 433.253>
VStem: 58.7471 374.506<0 703.701>
Fore
326.466 0 m 5
 58.7471 703.701 l 5
 158.753 702.5 l 5
 433.253 0 l 5
 326.466 0 l 5
EndSplineSet
EndChar
StartChar: bracketright
Encoding: 93 93 87
Width: 344
VWidth: 13985
Flags: W
TeX: 0 0 0 0
HStem: 0.494141 91.8232<60.9482 189.747> 609.494 92.8262<63.4482 190.181>
VStem: 189.747 93.7871<0 0.494141 92.3174 609.494 702.32 702.5>
Fore
283.534 0 m 1
 189.747 0 l 1
 189.747 0.494141 l 1
 60.9482 0.494141 l 1
 59.7471 92.5 l 1
 189.812 92.3174 l 1
 190.181 609.494 l 1
 63.4482 609.494 l 1
 62.2471 702.5 l 1
 190.247 702.32 l 1
 190.247 702.5 l 1
 284.253 703.701 l 1
 283.534 0 l 1
EndSplineSet
EndChar
StartChar: asciicircum
Encoding: 94 94 88
Width: 605
VWidth: 13985
Flags: W
TeX: 0 0 0 0
HStem: 529.219 204.281<157.25 309>
VStem: 157.25 290.5<529.219 530>
Fore
447.75 530 m 1
 309 733.5 l 1
 157.25 529.219 l 1
 248.75 530 l 1
 307.75 608 l 1
 360.75 530 l 1
 447.75 530 l 1
EndSplineSet
EndChar
StartChar: underscore
Encoding: 95 95 89
Width: 559
VWidth: 14017
Flags: W
TeX: 0 0 0 0
HStem: -82.5 82.3047<47.75 511.25>
Fore
511.25 -0.195312 m 1
 511.25 -82.5 l 5
 47.75 -82.5 l 5
 47.75 0.123047 l 1
 511.25 -0.195312 l 1
EndSplineSet
EndChar
StartChar: acute
Encoding: 180 180 91
Width: 1000
Flags: HW
TeX: 0 0 0 0
HStem: 791 194<432.5 522.5>
VStem: 382.5 201.5<837.5 912.5>
Fore
435 963 m 29
 496.5 890.5 l 29
 345 769 l 29
 295 815.5 l 29
 435 963 l 29
EndSplineSet
EndChar
StartChar: Agrave
Encoding: 192 192 92
Width: 695
VWidth: 13985
Flags: W
TeX: 0 0 0 0
HStem: 183.371 82.3184<255.408 456.111> 797.299 194<310.75 400.75>
VStem: 249.25 201.5<843.799 918.799>
Fore
318 984.299 m 29
 256.5 911.799 l 29
 408 790.299 l 29
 458 836.799 l 29
 318 984.299 l 29
EndSplineSet
Refer: 0 65 N 1 0 0 1 10.5 0 3
EndChar
StartChar: Aring
Encoding: 197 197 95
Width: 695
VWidth: 13985
Flags: W
TeX: 0 0 0 0
HStem: 183.371 82.3184<255.408 456.111> 794.887 4<383.957 428.957>
VStem: 289.043 45.5293<754.297 840.448> 383.957 45<753.572 841.216>
Fore
324.073 798.12 m 5
 324.073 764.41 373.457 764.03 373.457 798.887 c 5
 373.457 831.448 324.073 830.68 324.073 798.12 c 5
278.544 796.616 m 5
 278.544 889.706 418.457 876.547 418.457 794.887 c 5
 418.457 707.466 278.544 700.241 278.544 796.616 c 5
EndSplineSet
Refer: 0 65 N 1 0 0 1 10.5 0 3
KernsSLIFO: 59 -137 0 0 26 -135 0 0 49 -186 0 0 48 -188 0 0 47 -77 0 0 46 -132 0 0 43 -82 0 0 41 -78 0 0 40 -41 0 0 39 -42 0 0 27 -41 0 0 36 -41 0 0 35 -92 0 0 33 -45 0 0 31 -81 0 0 30 -47 0 0 24 -222 0 0 22 -225 0 0 21 -273 0 0 20 -94 0 0 19 -170 0 0 16 -104 0 0 14 -98 0 0 7 -105 0 0 3 -105 0 0 102 -78 0 0 98 -128 0 0
EndChar
StartChar: Egrave
Encoding: 200 200 96
Width: 518
VWidth: 13996
Flags: W
TeX: 0 0 0 0
HStem: 0 82.3047<162.727 445.27> 329.246 82.7832<162.727 357.864> 608.014 85.3184<162.727 436.492> 744.935 194<225.76 315.76>
VStem: 70.25 92.4766<82.3047 329.246 412.029 608.014> 164.26 201.5<791.435 866.435>
Fore
209.13 938.935 m 29
 147.63 866.435 l 29
 299.13 744.935 l 29
 349.13 791.435 l 29
 209.13 938.935 l 29
EndSplineSet
Refer: 5 69 N 1 0 0 1 -5.12012 0 3
EndChar
StartChar: aring
Encoding: 229 229 103
Width: 476
VWidth: 13985
Flags: HW
TeX: 0 0 0 0
Fore
213.116 623.233 m 1
 213.116 589.523 262.5 589.144 262.5 624 c 1
 262.5 656.562 213.116 655.793 213.116 623.233 c 1
167.587 621.729 m 1
 167.587 714.819 307.5 701.66 307.5 620 c 1
 307.5 532.579 167.587 525.354 167.587 621.729 c 1
EndSplineSet
Refer: 29 97 N 1 0 0 1 0 0 3
KernsSLIFO: 59 -126 0 0 26 -139 0 0 49 -170 0 0 47 -78 0 0 46 -136 0 0 43 -81 0 0 41 -77 0 0 40 -45 0 0 39 -46 0 0 28 -40 0 0 38 -40 0 0 27 -45 0 0 36 -45 0 0 35 -90 0 0 34 -42 0 0 33 -49 0 0 32 -41 0 0 31 -79 0 0 30 -51 0 0 24 -135 0 0 22 -144 0 0 21 -140 0 0 20 -92 0 0 19 -128 0 0 16 -99 0 0 14 -93 0 0 7 -100 0 0 3 -100 0 0 102 -77 0 0 98 -123 0 0 48 -175 0 0
EndChar
StartChar: quoteleft
Encoding: 8216 8216 104
Width: 187
Flags: W
TeX: 0 0 0 0
HStem: 615.777 130.223<39.7568 112.665>
VStem: 39.7568 87.2432<563.719 634.207>
Fore
127 620 m 5
 134 568 47.75 534.51 39.7568 615.777 c 5
 36 680.667 81.6341 735.152 112.665 746 c 5
 98.8252 725.509 96 661 112 645 c 5
 122.705 637.149 126.775 632.579 127 620 c 5
EndSplineSet
EndChar
